<svg width="382" height="94" viewBox="0 0 382 94" fill="none" xmlns="http://www.w3.org/2000/svg">
<circle cx="47" cy="47" r="35.5" stroke="white" stroke-opacity="0.99" stroke-width="9"/>
<path d="M11.7517 53.8104C9.4646 54.2523 7.22877 52.7557 7.02933 50.4348C6.60029 45.4421 7.10946 40.4002 8.54392 35.5728C10.3799 29.394 13.6778 23.7486 18.1581 19.1146C22.6385 14.4805 28.1695 10.9943 34.2829 8.95101C39.0592 7.35463 44.0811 6.67578 49.0855 6.93627C51.4117 7.05737 52.9828 9.24146 52.6183 11.5422C52.2537 13.8429 50.0895 15.3827 47.7607 15.3268C44.1031 15.239 40.447 15.7851 36.9569 16.9516C32.129 18.5652 27.761 21.3184 24.2227 24.9781C20.6844 28.6377 18.0801 33.096 16.6301 37.9756C15.5819 41.503 15.1593 45.1755 15.3704 48.828C15.5048 51.1536 14.0389 53.3685 11.7517 53.8104Z" fill="#4EDE90"/>
<path d="M38.3801 34.2727V59H32.4157V39.8509H32.2708L26.7409 43.2315V38.0639L32.8382 34.2727H38.3801ZM53.5057 59.3381C51.5819 59.3381 49.8634 59.0322 48.3501 58.4205C46.8449 57.8007 45.6617 56.9635 44.8004 55.9091C43.9472 54.8466 43.5206 53.6473 43.5206 52.3111C43.5206 51.2888 43.7661 50.3511 44.2571 49.4979C44.7481 48.6446 45.4122 47.9363 46.2493 47.3729C47.0945 46.8014 48.0362 46.4351 49.0746 46.2741V46.081C47.7143 45.8314 46.5994 45.1996 45.7301 44.1854C44.8688 43.1712 44.4382 41.9839 44.4382 40.6236C44.4382 39.3357 44.8286 38.1887 45.6094 37.1825C46.3982 36.1764 47.4728 35.3835 48.8331 34.804C50.2015 34.2244 51.759 33.9347 53.5057 33.9347C55.2524 33.9347 56.8059 34.2244 58.1662 34.804C59.5346 35.3835 60.6091 36.1764 61.3899 37.1825C62.1787 38.1887 62.5732 39.3357 62.5732 40.6236C62.5732 41.9919 62.1345 43.1832 61.2571 44.1974C60.3878 45.2036 59.281 45.8314 57.9368 46.081V46.2741C58.9671 46.4351 59.9008 46.8014 60.7379 47.3729C61.5831 47.9363 62.2512 48.6446 62.7422 49.4979C63.2412 50.3511 63.4908 51.2888 63.4908 52.3111C63.4908 53.6473 63.0601 54.8466 62.1989 55.9091C61.3376 56.9635 60.1544 57.8007 58.6491 58.4205C57.152 59.0322 55.4375 59.3381 53.5057 59.3381ZM53.5057 55.1001C54.2382 55.1001 54.8821 54.9633 55.4375 54.6896C55.9929 54.4079 56.4276 54.0175 56.7415 53.5185C57.0634 53.0194 57.2244 52.456 57.2244 51.8281C57.2244 51.1842 57.0634 50.6127 56.7415 50.1136C56.4195 49.6146 55.9768 49.2242 55.4134 48.9425C54.858 48.6527 54.2221 48.5078 53.5057 48.5078C52.7973 48.5078 52.1615 48.6527 51.598 48.9425C51.0346 49.2242 50.5919 49.6146 50.2699 50.1136C49.9479 50.6127 49.7869 51.1842 49.7869 51.8281C49.7869 52.456 49.9439 53.0194 50.2578 53.5185C50.5798 54.0095 51.0185 54.3958 51.5739 54.6776C52.1373 54.9593 52.7813 55.1001 53.5057 55.1001ZM53.5057 44.294C54.1335 44.294 54.6889 44.1652 55.1719 43.9077C55.6629 43.6501 56.0452 43.2919 56.3189 42.8331C56.6006 42.3743 56.7415 41.8551 56.7415 41.2756C56.7415 40.696 56.6006 40.1849 56.3189 39.7422C56.0452 39.2995 55.6669 38.9534 55.1839 38.7038C54.701 38.4463 54.1416 38.3175 53.5057 38.3175C52.8778 38.3175 52.3184 38.4463 51.8274 38.7038C51.3364 38.9534 50.9541 39.2995 50.6804 39.7422C50.4067 40.1849 50.2699 40.696 50.2699 41.2756C50.2699 41.8551 50.4067 42.3743 50.6804 42.8331C50.9621 43.2839 51.3485 43.642 51.8395 43.9077C52.3305 44.1652 52.8859 44.294 53.5057 44.294Z" fill="white"/>
<circle cx="198" cy="47" r="40" fill="white"/>
<circle cx="342" cy="47" r="40" fill="white"/>
<path d="M199.823 73.8611C208.549 72.1136 219.833 65.8351 219.833 49.6016C219.833 34.8309 209.021 24.993 201.244 20.4733C199.521 19.4683 197.5 20.7888 197.5 22.7848V27.888C197.5 31.9136 195.808 39.2612 191.107 42.3181C188.706 43.8787 186.11 41.542 185.82 38.6945L185.58 36.3551C185.3 33.636 182.531 31.9862 180.359 33.6444C176.454 36.6175 172.375 41.8379 172.375 49.5988C172.375 69.4503 187.14 74.4167 194.521 74.4167C194.951 74.4167 195.403 74.3999 195.872 74.3748C192.227 74.0649 186.333 71.8037 186.333 64.4895C186.333 58.7666 190.507 54.9001 193.678 53.0158C194.532 52.5133 195.529 53.1693 195.529 54.1604V55.8074C195.529 57.0637 196.018 59.0318 197.176 60.3774C198.488 61.9016 200.412 60.3048 200.565 58.3004C200.615 57.6695 201.252 57.2675 201.799 57.5857C203.589 58.6326 205.875 60.8659 205.875 64.4895C205.875 70.2068 202.723 72.8366 199.823 73.8611Z" fill="#FF6B00"/>
<path d="M327.542 73.625V68.0417H338.708V59.3875C336.428 58.8757 334.392 57.9098 332.6 56.4898C330.808 55.0697 329.494 53.2905 328.658 51.1521C325.169 50.7333 322.249 49.21 319.898 46.5821C317.548 43.9542 316.373 40.8713 316.375 37.3333V34.5417C316.375 33.0063 316.922 31.6914 318.017 30.597C319.111 29.5027 320.425 28.9565 321.958 28.9583H327.542V23.375H355.458V28.9583H361.042C362.577 28.9583 363.892 29.5055 364.986 30.5998C366.081 31.6942 366.627 33.0081 366.625 34.5417V37.3333C366.625 40.8694 365.45 43.9524 363.099 46.5821C360.749 49.2119 357.829 50.7352 354.342 51.1521C353.504 53.2924 352.189 55.0725 350.397 56.4925C348.605 57.9126 346.57 58.8776 344.292 59.3875V68.0417H355.458V73.625H327.542ZM327.542 45.15V34.5417H321.958V37.3333C321.958 39.1014 322.47 40.6954 323.494 42.1155C324.517 43.5355 325.867 44.547 327.542 45.15ZM355.458 45.15C357.133 44.5451 358.483 43.5327 359.506 42.1127C360.53 40.6926 361.042 39.0995 361.042 37.3333V34.5417H355.458V45.15Z" fill="#F8B107"/>
</svg>
