<svg width="31" height="31" viewBox="0 0 31 31" fill="none" xmlns="http://www.w3.org/2000/svg">
<path d="M22.7916 30.0833V27.1666H27.1666V22.7916H30.0833V27.8958C30.0833 28.4645 29.85 28.975 29.4125 29.4125C28.975 29.85 28.4645 30.0833 27.8958 30.0833H22.7916ZM8.20829 30.0833H3.10413C2.53538 30.0833 2.02496 29.85 1.58746 29.4125C1.14996 28.975 0.916626 28.4645 0.916626 27.8958V22.7916H3.83329V27.1666H8.20829V30.0833ZM22.7916 0.916626H27.8958C28.4645 0.916626 28.975 1.14996 29.4125 1.58746C29.85 2.02496 30.0833 2.53538 30.0833 3.10413V8.20829H27.1666V3.83329H22.7916V0.916626ZM8.20829 0.916626V3.83329H3.83329V8.20829H0.916626V3.10413C0.916626 2.53538 1.14996 2.02496 1.58746 1.58746C2.02496 1.14996 2.53538 0.916626 3.10413 0.916626H8.20829ZM16.9583 23.1562L22.7916 19.802V13.1083L16.9583 16.4625V23.1562ZM15.5 13.925L21.3333 10.5854L15.5 7.15829L9.66663 10.5854L15.5 13.925ZM8.20829 19.802L14.0416 23.1562V16.4625L8.20829 13.1083V19.802ZM24.5854 9.06871C25.3145 9.53538 25.7083 10.1625 25.7083 10.9937V20.2104C25.7083 21.0416 25.3145 21.6687 24.5854 22.1354L16.5937 26.7729C15.8645 27.2395 15.1354 27.2395 14.4062 26.7729L6.41454 22.1354C5.68538 21.6687 5.29163 21.0416 5.29163 20.2104V10.9937C5.29163 10.1625 5.68538 9.53538 6.41454 9.06871L14.4062 4.43121C14.7708 4.24163 15.1354 4.15413 15.5 4.15413C15.8645 4.15413 16.2291 4.24163 16.5937 4.43121L24.5854 9.06871Z" fill="white"/>
</svg>
