<svg width="179" height="139" viewBox="0 0 179 139" fill="none" xmlns="http://www.w3.org/2000/svg">
<path d="M57.9546 21.106L66.8971 18.507C72.8588 16.7744 76.9567 15.8328 79.191 15.6825C81.4454 15.5263 83.5089 16.2066 85.3816 17.7234C87.2685 19.2143 88.8138 22.0304 90.0173 26.1715C91.1162 29.9526 91.3845 32.6299 90.8222 34.2036C90.2598 35.7772 88.6361 37.0952 85.9509 38.1577C88.6318 38.0511 90.5536 38.3929 91.7162 39.1832C92.8788 39.9734 93.688 40.7796 94.1439 41.6017C94.6139 42.398 95.4188 44.7567 96.5584 48.6778L100.282 61.4913L88.5492 64.9014L83.8571 48.7569C83.1012 46.1562 82.4231 44.6068 81.8227 44.1087C81.2424 43.6049 80.082 43.6058 78.3415 44.1117L84.7081 66.0178L72.0746 69.6895L57.9546 21.106ZM73.004 25.7466L76.1437 36.5496C77.5641 36.1368 78.4991 35.6589 78.9488 35.116C79.4127 34.5473 79.3335 33.1926 78.7114 31.052L77.9352 28.3813C77.4875 26.8409 76.9138 25.912 76.2141 25.5946C75.5344 25.2715 74.4644 25.3221 73.004 25.7466Z" fill="#2D95B2"/>
<path d="M30.6334 103V84.8182H38.144C39.5053 84.8182 40.6801 85.0638 41.6685 85.555C42.6629 86.0404 43.4293 86.7388 43.9679 87.6502C44.5065 88.5558 44.7758 89.63 44.7758 90.8729C44.7758 92.1335 44.5006 93.2048 43.9502 94.0866C43.3997 94.9626 42.6185 95.6314 41.6064 96.093C40.5943 96.5488 39.3958 96.7766 38.0109 96.7766H33.2612V93.3143H37.1941C37.857 93.3143 38.4104 93.2285 38.8543 93.0568C39.3041 92.8793 39.6444 92.6129 39.8752 92.2578C40.106 91.8968 40.2215 91.4351 40.2215 90.8729C40.2215 90.3106 40.106 89.846 39.8752 89.479C39.6444 89.1062 39.3041 88.828 38.8543 88.6445C38.4045 88.4551 37.8511 88.3604 37.1941 88.3604H35.0279V103H30.6334ZM40.8695 94.6903L45.3972 103H40.6032L36.1643 94.6903H40.8695ZM53.283 103.257C51.8507 103.257 50.6196 102.964 49.5898 102.379C48.5659 101.787 47.7758 100.964 47.2194 99.9105C46.669 98.8511 46.3938 97.623 46.3938 96.2262C46.3938 94.8235 46.669 93.5954 47.2194 92.5419C47.7758 91.4825 48.5659 90.6598 49.5898 90.0739C50.6196 89.482 51.8507 89.1861 53.283 89.1861C54.7153 89.1861 55.9434 89.482 56.9673 90.0739C57.9971 90.6598 58.7872 91.4825 59.3377 92.5419C59.894 93.5954 60.1722 94.8235 60.1722 96.2262C60.1722 97.623 59.894 98.8511 59.3377 99.9105C58.7872 100.964 57.9971 101.787 56.9673 102.379C55.9434 102.964 54.7153 103.257 53.283 103.257ZM53.3096 99.9815C53.8304 99.9815 54.2714 99.8217 54.6324 99.5021C54.9934 99.1825 55.2687 98.7386 55.4581 98.1705C55.6534 97.6023 55.751 96.9453 55.751 96.1996C55.751 95.442 55.6534 94.7791 55.4581 94.2109C55.2687 93.6428 54.9934 93.1989 54.6324 92.8793C54.2714 92.5597 53.8304 92.3999 53.3096 92.3999C52.771 92.3999 52.3153 92.5597 51.9424 92.8793C51.5755 93.1989 51.2943 93.6428 51.099 94.2109C50.9096 94.7791 50.8149 95.442 50.8149 96.1996C50.8149 96.9453 50.9096 97.6023 51.099 98.1705C51.2943 98.7386 51.5755 99.1825 51.9424 99.5021C52.3153 99.8217 52.771 99.9815 53.3096 99.9815ZM62.3961 103V84.8182H66.7373V91.6985H66.8261C67.0037 91.2842 67.2552 90.8847 67.5807 90.5C67.9122 90.1153 68.3324 89.8016 68.8414 89.5589C69.3563 89.3104 69.9718 89.1861 70.688 89.1861C71.635 89.1861 72.5198 89.4347 73.3425 89.9318C74.1711 90.429 74.8399 91.1954 75.3489 92.2312C75.8579 93.2669 76.1123 94.5868 76.1123 96.1907C76.1123 97.7354 75.8667 99.0286 75.3755 100.07C74.8902 101.112 74.2332 101.893 73.4046 102.414C72.5819 102.935 71.6675 103.195 70.6614 103.195C69.9748 103.195 69.38 103.083 68.8769 102.858C68.3738 102.633 67.9507 102.337 67.6074 101.97C67.27 101.603 67.0096 101.21 66.8261 100.789H66.693V103H62.3961ZM66.6486 96.1818C66.6486 96.9157 66.7462 97.5549 66.9415 98.0994C67.1428 98.6439 67.4298 99.0671 67.8027 99.369C68.1815 99.6649 68.6342 99.8129 69.161 99.8129C69.6937 99.8129 70.1464 99.6649 70.5193 99.369C70.8922 99.0671 71.1733 98.6439 71.3627 98.0994C71.558 97.5549 71.6557 96.9157 71.6557 96.1818C71.6557 95.4479 71.558 94.8117 71.3627 94.2731C71.1733 93.7345 70.8922 93.3172 70.5193 93.0213C70.1524 92.7254 69.6996 92.5774 69.161 92.5774C68.6283 92.5774 68.1756 92.7224 67.8027 93.0124C67.4298 93.3024 67.1428 93.7167 66.9415 94.2553C66.7462 94.7939 66.6486 95.4361 66.6486 96.1818ZM84.7527 103.257C83.3204 103.257 82.0894 102.964 81.0595 102.379C80.0356 101.787 79.2455 100.964 78.6891 99.9105C78.1387 98.8511 77.8635 97.623 77.8635 96.2262C77.8635 94.8235 78.1387 93.5954 78.6891 92.5419C79.2455 91.4825 80.0356 90.6598 81.0595 90.0739C82.0894 89.482 83.3204 89.1861 84.7527 89.1861C86.185 89.1861 87.4131 89.482 88.437 90.0739C89.4668 90.6598 90.257 91.4825 90.8074 92.5419C91.3637 93.5954 91.6419 94.8235 91.6419 96.2262C91.6419 97.623 91.3637 98.8511 90.8074 99.9105C90.257 100.964 89.4668 101.787 88.437 102.379C87.4131 102.964 86.185 103.257 84.7527 103.257ZM84.7793 99.9815C85.3002 99.9815 85.7411 99.8217 86.1021 99.5021C86.4632 99.1825 86.7384 98.7386 86.9278 98.1705C87.1231 97.6023 87.2207 96.9453 87.2207 96.1996C87.2207 95.442 87.1231 94.7791 86.9278 94.2109C86.7384 93.6428 86.4632 93.1989 86.1021 92.8793C85.7411 92.5597 85.3002 92.3999 84.7793 92.3999C84.2408 92.3999 83.785 92.5597 83.4122 92.8793C83.0452 93.1989 82.7641 93.6428 82.5688 94.2109C82.3794 94.7791 82.2847 95.442 82.2847 96.1996C82.2847 96.9453 82.3794 97.6023 82.5688 98.1705C82.7641 98.7386 83.0452 99.1825 83.4122 99.5021C83.785 99.8217 84.2408 99.9815 84.7793 99.9815ZM93.8658 103V84.8182H98.2603V99.4311H105.824V103H93.8658ZM111.943 103.231C111.073 103.231 110.301 103.086 109.626 102.796C108.957 102.5 108.428 102.056 108.037 101.464C107.652 100.866 107.46 100.118 107.46 99.218C107.46 98.4605 107.593 97.8213 107.86 97.3004C108.126 96.7796 108.493 96.3564 108.96 96.0309C109.428 95.7054 109.967 95.4598 110.576 95.294C111.186 95.1224 111.837 95.007 112.529 94.9478C113.305 94.8768 113.929 94.8028 114.402 94.7259C114.876 94.643 115.219 94.5276 115.432 94.3796C115.651 94.2257 115.761 94.0097 115.761 93.7315V93.6871C115.761 93.2314 115.604 92.8793 115.29 92.6307C114.977 92.3821 114.553 92.2578 114.021 92.2578C113.447 92.2578 112.985 92.3821 112.636 92.6307C112.287 92.8793 112.065 93.2225 111.97 93.6605L107.966 93.5185C108.084 92.6899 108.389 91.95 108.88 91.299C109.378 90.642 110.058 90.1271 110.922 89.7543C111.792 89.3755 112.837 89.1861 114.056 89.1861C114.926 89.1861 115.728 89.2897 116.462 89.4968C117.196 89.698 117.835 89.994 118.38 90.3846C118.924 90.7693 119.344 91.2428 119.64 91.805C119.942 92.3673 120.093 93.0095 120.093 93.7315V103H116.009V101.1H115.903C115.66 101.562 115.349 101.952 114.971 102.272C114.598 102.592 114.157 102.831 113.648 102.991C113.145 103.151 112.577 103.231 111.943 103.231ZM113.284 100.39C113.751 100.39 114.172 100.295 114.545 100.106C114.923 99.9164 115.225 99.656 115.45 99.3246C115.675 98.9872 115.787 98.5966 115.787 98.1527V96.8565C115.663 96.9216 115.512 96.9808 115.335 97.0341C115.163 97.0874 114.974 97.1377 114.766 97.185C114.559 97.2324 114.346 97.2738 114.127 97.3093C113.908 97.3448 113.698 97.3774 113.497 97.407C113.089 97.4721 112.739 97.5727 112.449 97.7088C112.165 97.8449 111.946 98.0225 111.792 98.2415C111.644 98.4545 111.57 98.709 111.57 99.005C111.57 99.4548 111.73 99.7981 112.05 100.035C112.375 100.272 112.787 100.39 113.284 100.39ZM122.748 103V84.8182H127.089V91.6985H127.178C127.355 91.2842 127.607 90.8847 127.932 90.5C128.264 90.1153 128.684 89.8016 129.193 89.5589C129.708 89.3104 130.323 89.1861 131.04 89.1861C131.987 89.1861 132.871 89.4347 133.694 89.9318C134.523 90.429 135.191 91.1954 135.7 92.2312C136.209 93.2669 136.464 94.5868 136.464 96.1907C136.464 97.7354 136.218 99.0286 135.727 100.07C135.242 101.112 134.585 101.893 133.756 102.414C132.933 102.935 132.019 103.195 131.013 103.195C130.326 103.195 129.732 103.083 129.228 102.858C128.725 102.633 128.302 102.337 127.959 101.97C127.622 101.603 127.361 101.21 127.178 100.789H127.045V103H122.748ZM127 96.1818C127 96.9157 127.098 97.5549 127.293 98.0994C127.494 98.6439 127.781 99.0671 128.154 99.369C128.533 99.6649 128.986 99.8129 129.513 99.8129C130.045 99.8129 130.498 99.6649 130.871 99.369C131.244 99.0671 131.525 98.6439 131.714 98.0994C131.91 97.5549 132.007 96.9157 132.007 96.1818C132.007 95.4479 131.91 94.8117 131.714 94.2731C131.525 93.7345 131.244 93.3172 130.871 93.0213C130.504 92.7254 130.051 92.5774 129.513 92.5774C128.98 92.5774 128.527 92.7224 128.154 93.0124C127.781 93.3024 127.494 93.7167 127.293 94.2553C127.098 94.7939 127 95.4361 127 96.1818ZM150.644 93.5273L146.658 93.6339C146.616 93.3498 146.504 93.0982 146.321 92.8793C146.137 92.6544 145.897 92.4798 145.601 92.3555C145.311 92.2253 144.974 92.1602 144.589 92.1602C144.086 92.1602 143.657 92.2608 143.302 92.462C142.953 92.6632 142.781 92.9355 142.787 93.2788C142.781 93.5451 142.888 93.7759 143.107 93.9712C143.332 94.1665 143.731 94.3234 144.305 94.4418L146.933 94.9389C148.294 95.1993 149.306 95.6314 149.969 96.2351C150.638 96.8388 150.975 97.6378 150.981 98.6321C150.975 99.5672 150.697 100.381 150.147 101.074C149.602 101.766 148.857 102.305 147.91 102.689C146.963 103.068 145.88 103.257 144.66 103.257C142.713 103.257 141.177 102.858 140.053 102.059C138.934 101.254 138.295 100.177 138.135 98.8274L142.423 98.7209C142.518 99.218 142.763 99.5968 143.16 99.8572C143.557 100.118 144.063 100.248 144.678 100.248C145.234 100.248 145.687 100.144 146.036 99.9371C146.386 99.73 146.563 99.4548 146.569 99.1115C146.563 98.8037 146.427 98.5581 146.161 98.3746C145.894 98.1853 145.477 98.0373 144.909 97.9308L142.53 97.478C141.163 97.2294 140.145 96.7707 139.476 96.1019C138.807 95.4272 138.475 94.569 138.481 93.5273C138.475 92.6159 138.718 91.8376 139.209 91.1925C139.701 90.5414 140.399 90.0443 141.305 89.701C142.21 89.3577 143.278 89.1861 144.509 89.1861C146.356 89.1861 147.812 89.5737 148.877 90.3491C149.943 91.1185 150.532 92.1779 150.644 93.5273Z" fill="#2D95B2"/>
<path d="M1.31179 126V114.364H3.41974V124.233H8.54474V126H1.31179ZM14.147 126.17C13.272 126.17 12.5163 125.989 11.88 125.625C11.2474 125.258 10.7607 124.739 10.4197 124.068C10.0788 123.394 9.90838 122.6 9.90838 121.688C9.90838 120.79 10.0788 120.002 10.4197 119.324C10.7644 118.642 11.2455 118.112 11.8629 117.733C12.4804 117.35 13.2057 117.159 14.0391 117.159C14.5769 117.159 15.0845 117.246 15.5618 117.42C16.0429 117.591 16.4671 117.856 16.8345 118.216C17.2057 118.576 17.4974 119.034 17.7095 119.591C17.9216 120.144 18.0277 120.803 18.0277 121.568V122.199H10.8743V120.812H16.0561C16.0523 120.419 15.9671 120.068 15.8004 119.761C15.6338 119.451 15.4008 119.206 15.1016 119.028C14.8061 118.85 14.4614 118.761 14.0675 118.761C13.647 118.761 13.2777 118.864 12.9595 119.068C12.6413 119.269 12.3932 119.534 12.2152 119.864C12.041 120.189 11.9519 120.547 11.9482 120.938V122.148C11.9482 122.655 12.041 123.091 12.2266 123.455C12.4122 123.814 12.6716 124.091 13.005 124.284C13.3383 124.473 13.7285 124.568 14.1754 124.568C14.4747 124.568 14.7455 124.527 14.9879 124.443C15.2304 124.356 15.4406 124.229 15.6186 124.062C15.7966 123.896 15.9311 123.689 16.022 123.443L17.9425 123.659C17.8213 124.167 17.5902 124.61 17.2493 124.989C16.9122 125.364 16.4804 125.655 15.9538 125.864C15.4273 126.068 14.825 126.17 14.147 126.17ZM22.2791 126.176C21.7261 126.176 21.228 126.078 20.7848 125.881C20.3454 125.68 19.9969 125.384 19.7393 124.994C19.4856 124.604 19.3587 124.123 19.3587 123.551C19.3587 123.059 19.4496 122.652 19.6314 122.33C19.8132 122.008 20.0613 121.75 20.3757 121.557C20.6901 121.364 21.0443 121.218 21.4382 121.119C21.8359 121.017 22.2469 120.943 22.6712 120.898C23.1825 120.845 23.5973 120.797 23.9155 120.756C24.2337 120.71 24.4647 120.642 24.6087 120.551C24.7564 120.456 24.8303 120.311 24.8303 120.114V120.08C24.8303 119.652 24.7034 119.32 24.4496 119.085C24.1958 118.85 23.8303 118.733 23.353 118.733C22.8492 118.733 22.4496 118.843 22.1541 119.062C21.8625 119.282 21.6655 119.542 21.5632 119.841L19.6428 119.568C19.7943 119.038 20.0443 118.595 20.3928 118.239C20.7412 117.879 21.1674 117.61 21.6712 117.432C22.175 117.25 22.7318 117.159 23.3416 117.159C23.7621 117.159 24.1806 117.208 24.5973 117.307C25.014 117.405 25.3946 117.568 25.7393 117.795C26.084 118.019 26.3606 118.324 26.5689 118.71C26.781 119.097 26.8871 119.58 26.8871 120.159V126H24.9098V124.801H24.8416C24.7166 125.044 24.5405 125.271 24.3132 125.483C24.0897 125.691 23.8075 125.86 23.4666 125.989C23.1295 126.114 22.7337 126.176 22.2791 126.176ZM22.8132 124.665C23.2261 124.665 23.584 124.583 23.8871 124.42C24.1901 124.254 24.4231 124.034 24.5859 123.761C24.7526 123.489 24.8359 123.191 24.8359 122.869V121.841C24.7715 121.894 24.6617 121.943 24.5064 121.989C24.3549 122.034 24.1844 122.074 23.995 122.108C23.8056 122.142 23.6181 122.172 23.4325 122.199C23.2469 122.225 23.0859 122.248 22.9496 122.267C22.6428 122.309 22.3681 122.377 22.1257 122.472C21.8833 122.566 21.692 122.699 21.5518 122.869C21.4117 123.036 21.3416 123.252 21.3416 123.517C21.3416 123.896 21.4799 124.182 21.7564 124.375C22.0329 124.568 22.3852 124.665 22.8132 124.665ZM28.9553 126V117.273H30.9496V118.727H31.0405C31.1996 118.223 31.4723 117.835 31.8587 117.562C32.2488 117.286 32.6939 117.148 33.1939 117.148C33.3075 117.148 33.4344 117.153 33.5746 117.165C33.7185 117.172 33.8378 117.186 33.9325 117.205V119.097C33.8454 119.066 33.7071 119.04 33.5178 119.017C33.3321 118.991 33.1522 118.977 32.978 118.977C32.603 118.977 32.2659 119.059 31.9666 119.222C31.6712 119.381 31.4382 119.602 31.2678 119.886C31.0973 120.17 31.0121 120.498 31.0121 120.869V126H28.9553ZM37.3558 120.886V126H35.299V117.273H37.2649V118.756H37.3672C37.5679 118.267 37.888 117.879 38.3274 117.591C38.7706 117.303 39.3179 117.159 39.9695 117.159C40.5717 117.159 41.0964 117.288 41.5433 117.545C41.9941 117.803 42.3426 118.176 42.5888 118.665C42.8388 119.153 42.9619 119.746 42.9581 120.443V126H40.9013V120.761C40.9013 120.178 40.7498 119.722 40.4467 119.392C40.1475 119.062 39.7327 118.898 39.2024 118.898C38.8426 118.898 38.5225 118.977 38.2422 119.136C37.9657 119.292 37.7479 119.517 37.5888 119.812C37.4335 120.108 37.3558 120.466 37.3558 120.886ZM63.0376 118.29H60.9126C60.852 117.941 60.7403 117.633 60.5774 117.364C60.4145 117.091 60.2119 116.86 59.9695 116.67C59.727 116.481 59.4505 116.339 59.1399 116.244C58.8331 116.146 58.5017 116.097 58.1456 116.097C57.513 116.097 56.9524 116.256 56.4638 116.574C55.9751 116.888 55.5926 117.35 55.3161 117.96C55.0395 118.566 54.9013 119.307 54.9013 120.182C54.9013 121.072 55.0395 121.822 55.3161 122.432C55.5964 123.038 55.9789 123.496 56.4638 123.807C56.9524 124.114 57.5111 124.267 58.1399 124.267C58.4884 124.267 58.8142 124.222 59.1172 124.131C59.424 124.036 59.6986 123.898 59.9411 123.716C60.1873 123.534 60.3937 123.311 60.5604 123.045C60.7308 122.78 60.8482 122.477 60.9126 122.136L63.0376 122.148C62.9581 122.701 62.7857 123.22 62.5206 123.705C62.2592 124.189 61.9164 124.617 61.4922 124.989C61.0679 125.356 60.5717 125.644 60.0036 125.852C59.4354 126.057 58.8047 126.159 58.1115 126.159C57.0888 126.159 56.1759 125.922 55.3729 125.449C54.5698 124.975 53.9373 124.292 53.4751 123.398C53.013 122.504 52.782 121.432 52.782 120.182C52.782 118.928 53.0149 117.856 53.4808 116.966C53.9467 116.072 54.5812 115.388 55.3842 114.915C56.1873 114.441 57.0964 114.205 58.1115 114.205C58.7592 114.205 59.3615 114.295 59.9183 114.477C60.4751 114.659 60.9714 114.926 61.407 115.278C61.8426 115.627 62.2005 116.055 62.4808 116.562C62.7649 117.066 62.9505 117.642 63.0376 118.29ZM64.8771 126V117.273H66.8714V118.727H66.9624C67.1214 118.223 67.3942 117.835 67.7805 117.562C68.1707 117.286 68.6158 117.148 69.1158 117.148C69.2294 117.148 69.3563 117.153 69.4964 117.165C69.6404 117.172 69.7597 117.186 69.8544 117.205V119.097C69.7673 119.066 69.629 119.04 69.4396 119.017C69.254 118.991 69.0741 118.977 68.8999 118.977C68.5249 118.977 68.1877 119.059 67.8885 119.222C67.593 119.381 67.3601 119.602 67.1896 119.886C67.0192 120.17 66.9339 120.498 66.9339 120.869V126H64.8771ZM74.7251 126.17C73.8501 126.17 73.0945 125.989 72.4581 125.625C71.8255 125.258 71.3388 124.739 70.9979 124.068C70.657 123.394 70.4865 122.6 70.4865 121.688C70.4865 120.79 70.657 120.002 70.9979 119.324C71.3426 118.642 71.8236 118.112 72.4411 117.733C73.0585 117.35 73.7839 117.159 74.6172 117.159C75.1551 117.159 75.6626 117.246 76.1399 117.42C76.621 117.591 77.0452 117.856 77.4126 118.216C77.7839 118.576 78.0755 119.034 78.2876 119.591C78.4998 120.144 78.6058 120.803 78.6058 121.568V122.199H71.4524V120.812H76.6342C76.6304 120.419 76.5452 120.068 76.3786 119.761C76.2119 119.451 75.9789 119.206 75.6797 119.028C75.3842 118.85 75.0395 118.761 74.6456 118.761C74.2251 118.761 73.8558 118.864 73.5376 119.068C73.2195 119.269 72.9714 119.534 72.7933 119.864C72.6191 120.189 72.5301 120.547 72.5263 120.938V122.148C72.5263 122.655 72.6191 123.091 72.8047 123.455C72.9903 123.814 73.2498 124.091 73.5831 124.284C73.9164 124.473 74.3066 124.568 74.7536 124.568C75.0528 124.568 75.3236 124.527 75.5661 124.443C75.8085 124.356 76.0187 124.229 76.1967 124.062C76.3748 123.896 76.5092 123.689 76.6001 123.443L78.5206 123.659C78.3994 124.167 78.1683 124.61 77.8274 124.989C77.4903 125.364 77.0585 125.655 76.532 125.864C76.0054 126.068 75.4032 126.17 74.7251 126.17ZM82.8572 126.176C82.3042 126.176 81.8061 126.078 81.3629 125.881C80.9235 125.68 80.575 125.384 80.3175 124.994C80.0637 124.604 79.9368 124.123 79.9368 123.551C79.9368 123.059 80.0277 122.652 80.2095 122.33C80.3913 122.008 80.6394 121.75 80.9538 121.557C81.2682 121.364 81.6224 121.218 82.0163 121.119C82.4141 121.017 82.825 120.943 83.2493 120.898C83.7607 120.845 84.1754 120.797 84.4936 120.756C84.8118 120.71 85.0429 120.642 85.1868 120.551C85.3345 120.456 85.4084 120.311 85.4084 120.114V120.08C85.4084 119.652 85.2815 119.32 85.0277 119.085C84.7739 118.85 84.4084 118.733 83.9311 118.733C83.4273 118.733 83.0277 118.843 82.7322 119.062C82.4406 119.282 82.2436 119.542 82.1413 119.841L80.2209 119.568C80.3724 119.038 80.6224 118.595 80.9709 118.239C81.3194 117.879 81.7455 117.61 82.2493 117.432C82.7531 117.25 83.3099 117.159 83.9197 117.159C84.3402 117.159 84.7588 117.208 85.1754 117.307C85.5921 117.405 85.9728 117.568 86.3175 117.795C86.6622 118.019 86.9387 118.324 87.147 118.71C87.3591 119.097 87.4652 119.58 87.4652 120.159V126H85.4879V124.801H85.4197C85.2947 125.044 85.1186 125.271 84.8913 125.483C84.6679 125.691 84.3857 125.86 84.0447 125.989C83.7076 126.114 83.3118 126.176 82.8572 126.176ZM83.3913 124.665C83.8042 124.665 84.1622 124.583 84.4652 124.42C84.7682 124.254 85.0012 124.034 85.1641 123.761C85.3307 123.489 85.4141 123.191 85.4141 122.869V121.841C85.3497 121.894 85.2398 121.943 85.0845 121.989C84.933 122.034 84.7625 122.074 84.5732 122.108C84.3838 122.142 84.1963 122.172 84.0107 122.199C83.825 122.225 83.6641 122.248 83.5277 122.267C83.2209 122.309 82.9463 122.377 82.7038 122.472C82.4614 122.566 82.2701 122.699 82.13 122.869C81.9898 123.036 81.9197 123.252 81.9197 123.517C81.9197 123.896 82.058 124.182 82.3345 124.375C82.611 124.568 82.9633 124.665 83.3913 124.665ZM93.8913 117.273V118.864H88.8743V117.273H93.8913ZM90.1129 115.182H92.1697V123.375C92.1697 123.652 92.2114 123.864 92.2947 124.011C92.3819 124.155 92.4955 124.254 92.6357 124.307C92.7758 124.36 92.9311 124.386 93.1016 124.386C93.2304 124.386 93.3478 124.377 93.4538 124.358C93.5637 124.339 93.647 124.322 93.7038 124.307L94.0504 125.915C93.9406 125.953 93.7834 125.994 93.5788 126.04C93.3781 126.085 93.1319 126.112 92.8402 126.119C92.325 126.134 91.861 126.057 91.4482 125.886C91.0353 125.712 90.7076 125.443 90.4652 125.08C90.2266 124.716 90.1091 124.261 90.1129 123.716V115.182ZM99.3814 126.17C98.5064 126.17 97.7507 125.989 97.1143 125.625C96.4818 125.258 95.995 124.739 95.6541 124.068C95.3132 123.394 95.1428 122.6 95.1428 121.688C95.1428 120.79 95.3132 120.002 95.6541 119.324C95.9988 118.642 96.4799 118.112 97.0973 117.733C97.7147 117.35 98.4401 117.159 99.2734 117.159C99.8113 117.159 100.319 117.246 100.796 117.42C101.277 117.591 101.701 117.856 102.069 118.216C102.44 118.576 102.732 119.034 102.944 119.591C103.156 120.144 103.262 120.803 103.262 121.568V122.199H96.1087V120.812H101.29C101.287 120.419 101.201 120.068 101.035 119.761C100.868 119.451 100.635 119.206 100.336 119.028C100.04 118.85 99.6958 118.761 99.3018 118.761C98.8814 118.761 98.5121 118.864 98.1939 119.068C97.8757 119.269 97.6276 119.534 97.4496 119.864C97.2753 120.189 97.1863 120.547 97.1825 120.938V122.148C97.1825 122.655 97.2753 123.091 97.4609 123.455C97.6465 123.814 97.906 124.091 98.2393 124.284C98.5727 124.473 98.9628 124.568 99.4098 124.568C99.709 124.568 99.9799 124.527 100.222 124.443C100.465 124.356 100.675 124.229 100.853 124.062C101.031 123.896 101.165 123.689 101.256 123.443L103.177 123.659C103.056 124.167 102.825 124.61 102.484 124.989C102.147 125.364 101.715 125.655 101.188 125.864C100.662 126.068 100.059 126.17 99.3814 126.17ZM115.138 114.364V126H113.031V114.364H115.138ZM119.387 120.886V126H117.33V117.273H119.296V118.756H119.398C119.599 118.267 119.919 117.879 120.359 117.591C120.802 117.303 121.349 117.159 122.001 117.159C122.603 117.159 123.128 117.288 123.575 117.545C124.025 117.803 124.374 118.176 124.62 118.665C124.87 119.153 124.993 119.746 124.989 120.443V126H122.933V120.761C122.933 120.178 122.781 119.722 122.478 119.392C122.179 119.062 121.764 118.898 121.234 118.898C120.874 118.898 120.554 118.977 120.273 119.136C119.997 119.292 119.779 119.517 119.62 119.812C119.465 120.108 119.387 120.466 119.387 120.886ZM129.137 120.886V126H127.08V117.273H129.046V118.756H129.148C129.349 118.267 129.669 117.879 130.109 117.591C130.552 117.303 131.099 117.159 131.751 117.159C132.353 117.159 132.878 117.288 133.325 117.545C133.775 117.803 134.124 118.176 134.37 118.665C134.62 119.153 134.743 119.746 134.739 120.443V126H132.683V120.761C132.683 120.178 132.531 119.722 132.228 119.392C131.929 119.062 131.514 118.898 130.984 118.898C130.624 118.898 130.304 118.977 130.023 119.136C129.747 119.292 129.529 119.517 129.37 119.812C129.215 120.108 129.137 120.466 129.137 120.886ZM140.637 126.17C139.785 126.17 139.046 125.983 138.421 125.608C137.796 125.233 137.311 124.708 136.967 124.034C136.626 123.36 136.455 122.572 136.455 121.67C136.455 120.769 136.626 119.979 136.967 119.301C137.311 118.623 137.796 118.097 138.421 117.722C139.046 117.347 139.785 117.159 140.637 117.159C141.489 117.159 142.228 117.347 142.853 117.722C143.478 118.097 143.961 118.623 144.302 119.301C144.647 119.979 144.819 120.769 144.819 121.67C144.819 122.572 144.647 123.36 144.302 124.034C143.961 124.708 143.478 125.233 142.853 125.608C142.228 125.983 141.489 126.17 140.637 126.17ZM140.648 124.523C141.111 124.523 141.497 124.396 141.808 124.142C142.118 123.884 142.349 123.54 142.501 123.108C142.656 122.676 142.734 122.195 142.734 121.665C142.734 121.131 142.656 120.648 142.501 120.216C142.349 119.78 142.118 119.434 141.808 119.176C141.497 118.919 141.111 118.79 140.648 118.79C140.175 118.79 139.781 118.919 139.467 119.176C139.156 119.434 138.923 119.78 138.768 120.216C138.616 120.648 138.54 121.131 138.54 121.665C138.54 122.195 138.616 122.676 138.768 123.108C138.923 123.54 139.156 123.884 139.467 124.142C139.781 124.396 140.175 124.523 140.648 124.523ZM154.063 117.273L150.955 126H148.683L145.575 117.273H147.768L149.773 123.756H149.864L151.876 117.273H154.063ZM157.748 126.176C157.195 126.176 156.697 126.078 156.254 125.881C155.814 125.68 155.466 125.384 155.208 124.994C154.954 124.604 154.827 124.123 154.827 123.551C154.827 123.059 154.918 122.652 155.1 122.33C155.282 122.008 155.53 121.75 155.844 121.557C156.159 121.364 156.513 121.218 156.907 121.119C157.305 121.017 157.716 120.943 158.14 120.898C158.651 120.845 159.066 120.797 159.384 120.756C159.702 120.71 159.933 120.642 160.077 120.551C160.225 120.456 160.299 120.311 160.299 120.114V120.08C160.299 119.652 160.172 119.32 159.918 119.085C159.665 118.85 159.299 118.733 158.822 118.733C158.318 118.733 157.918 118.843 157.623 119.062C157.331 119.282 157.134 119.542 157.032 119.841L155.112 119.568C155.263 119.038 155.513 118.595 155.862 118.239C156.21 117.879 156.636 117.61 157.14 117.432C157.644 117.25 158.201 117.159 158.81 117.159C159.231 117.159 159.649 117.208 160.066 117.307C160.483 117.405 160.863 117.568 161.208 117.795C161.553 118.019 161.829 118.324 162.038 118.71C162.25 119.097 162.356 119.58 162.356 120.159V126H160.379V124.801H160.31C160.185 125.044 160.009 125.271 159.782 125.483C159.558 125.691 159.276 125.86 158.935 125.989C158.598 126.114 158.202 126.176 157.748 126.176ZM158.282 124.665C158.695 124.665 159.053 124.583 159.356 124.42C159.659 124.254 159.892 124.034 160.055 123.761C160.221 123.489 160.305 123.191 160.305 122.869V121.841C160.24 121.894 160.13 121.943 159.975 121.989C159.824 122.034 159.653 122.074 159.464 122.108C159.274 122.142 159.087 122.172 158.901 122.199C158.716 122.225 158.555 122.248 158.418 122.267C158.112 122.309 157.837 122.377 157.594 122.472C157.352 122.566 157.161 122.699 157.021 122.869C156.88 123.036 156.81 123.252 156.81 123.517C156.81 123.896 156.949 124.182 157.225 124.375C157.502 124.568 157.854 124.665 158.282 124.665ZM168.782 117.273V118.864H163.765V117.273H168.782ZM165.004 115.182H167.06V123.375C167.06 123.652 167.102 123.864 167.185 124.011C167.272 124.155 167.386 124.254 167.526 124.307C167.666 124.36 167.822 124.386 167.992 124.386C168.121 124.386 168.238 124.377 168.344 124.358C168.454 124.339 168.538 124.322 168.594 124.307L168.941 125.915C168.831 125.953 168.674 125.994 168.469 126.04C168.269 126.085 168.022 126.112 167.731 126.119C167.216 126.134 166.752 126.057 166.339 125.886C165.926 125.712 165.598 125.443 165.356 125.08C165.117 124.716 165 124.261 165.004 123.716V115.182ZM174.272 126.17C173.397 126.17 172.641 125.989 172.005 125.625C171.372 125.258 170.886 124.739 170.545 124.068C170.204 123.394 170.033 122.6 170.033 121.688C170.033 120.79 170.204 120.002 170.545 119.324C170.889 118.642 171.371 118.112 171.988 117.733C172.605 117.35 173.331 117.159 174.164 117.159C174.702 117.159 175.21 117.246 175.687 117.42C176.168 117.591 176.592 117.856 176.96 118.216C177.331 118.576 177.622 119.034 177.835 119.591C178.047 120.144 178.153 120.803 178.153 121.568V122.199H170.999V120.812H176.181C176.177 120.419 176.092 120.068 175.925 119.761C175.759 119.451 175.526 119.206 175.227 119.028C174.931 118.85 174.586 118.761 174.192 118.761C173.772 118.761 173.403 118.864 173.085 119.068C172.766 119.269 172.518 119.534 172.34 119.864C172.166 120.189 172.077 120.547 172.073 120.938V122.148C172.073 122.655 172.166 123.091 172.352 123.455C172.537 123.814 172.797 124.091 173.13 124.284C173.463 124.473 173.853 124.568 174.3 124.568C174.6 124.568 174.871 124.527 175.113 124.443C175.355 124.356 175.566 124.229 175.744 124.062C175.922 123.896 176.056 123.689 176.147 123.443L178.067 123.659C177.946 124.167 177.715 124.61 177.374 124.989C177.037 125.364 176.605 125.655 176.079 125.864C175.552 126.068 174.95 126.17 174.272 126.17Z" fill="white"/>
</svg>
