<svg width="28" height="36" viewBox="0 0 28 36" fill="none" xmlns="http://www.w3.org/2000/svg">
<path d="M3.99996 35.6667C3.0833 35.6667 2.2983 35.34 1.64496 34.6867C0.991629 34.0333 0.665518 33.2489 0.666629 32.3333V15.6667C0.666629 14.75 0.993295 13.965 1.64663 13.3117C2.29996 12.6583 3.08441 12.3322 3.99996 12.3333H5.66663V9.00001C5.66663 6.69445 6.47941 4.7289 8.10496 3.10334C9.73052 1.47778 11.6955 0.665562 14 0.666673C16.3055 0.666673 18.2711 1.47945 19.8966 3.10501C21.5222 4.73056 22.3344 6.69556 22.3333 9.00001V12.3333H24C24.9166 12.3333 25.7016 12.66 26.355 13.3133C27.0083 13.9667 27.3344 14.7511 27.3333 15.6667V32.3333C27.3333 33.25 27.0066 34.035 26.3533 34.6883C25.7 35.3417 24.9155 35.6678 24 35.6667H3.99996ZM14 27.3333C14.9166 27.3333 15.7016 27.0067 16.355 26.3533C17.0083 25.7 17.3344 24.9156 17.3333 24C17.3333 23.0833 17.0066 22.2983 16.3533 21.645C15.7 20.9917 14.9155 20.6656 14 20.6667C13.0833 20.6667 12.2983 20.9933 11.645 21.6467C10.9916 22.3 10.6655 23.0845 10.6666 24C10.6666 24.9167 10.9933 25.7017 11.6466 26.355C12.3 27.0083 13.0844 27.3345 14 27.3333ZM8.99996 12.3333H19V9.00001C19 7.61112 18.5139 6.43056 17.5416 5.45834C16.5694 4.48612 15.3889 4.00001 14 4.00001C12.6111 4.00001 11.4305 4.48612 10.4583 5.45834C9.48607 6.43056 8.99996 7.61112 8.99996 9.00001V12.3333Z" fill="black"/>
</svg>
