<svg width="28" height="28" viewBox="0 0 28 28" fill="none" xmlns="http://www.w3.org/2000/svg">
<path d="M14 14C12.1666 14 10.5972 13.3472 9.29163 12.0417C7.98607 10.7361 7.33329 9.16666 7.33329 7.33332C7.33329 5.49999 7.98607 3.93055 9.29163 2.62499C10.5972 1.31943 12.1666 0.666656 14 0.666656C15.8333 0.666656 17.4027 1.31943 18.7083 2.62499C20.0138 3.93055 20.6666 5.49999 20.6666 7.33332C20.6666 9.16666 20.0138 10.7361 18.7083 12.0417C17.4027 13.3472 15.8333 14 14 14ZM0.666626 27.3333V22.6667C0.666626 21.7222 0.90996 20.8539 1.39663 20.0617C1.88329 19.2694 2.52885 18.6655 3.33329 18.25C5.05551 17.3889 6.80551 16.7428 8.58329 16.3117C10.3611 15.8805 12.1666 15.6655 14 15.6667C15.8333 15.6667 17.6388 15.8822 19.4166 16.3133C21.1944 16.7444 22.9444 17.39 24.6666 18.25C25.4722 18.6667 26.1183 19.2711 26.605 20.0633C27.0916 20.8555 27.3344 21.7233 27.3333 22.6667V27.3333H0.666626Z" fill="black"/>
</svg>
